<svg width="24" height="24" viewBox="0 0 24 24" fill="none" xmlns="http://www.w3.org/2000/svg">
<path d="M18.6714 8.09998C18.7942 8.09987 18.9171 8.12433 19.0337 8.17322C19.2475 8.26539 19.4434 8.44592 19.5874 8.73962L19.646 8.87244C19.8721 9.44898 19.8588 10.2921 19.5415 11.1195C19.08 12.3037 18.2568 12.8998 17.6499 12.8998H17.6489C17.5262 12.8999 17.4031 12.8744 17.2866 12.8256C17.0409 12.7198 16.8193 12.4997 16.6733 12.1273C16.4759 11.6235 16.4624 10.9139 16.6782 10.1888L16.7856 9.87732C17.2377 8.71132 18.0532 8.10973 18.6577 8.09998H18.6714ZM5.32666 8.09998H5.32764C5.93318 8.10018 6.7554 8.69551 7.21436 9.87732C7.53609 10.7064 7.55159 11.5505 7.32568 12.1283C7.18069 12.4987 6.9604 12.7184 6.71631 12.8246L6.7124 12.8265C6.59621 12.8753 6.47349 12.8999 6.35107 12.8998C5.74543 12.8998 4.92238 12.3038 4.46338 11.1215C4.14181 10.2925 4.12719 9.44918 4.35303 8.87146C4.49916 8.49812 4.72018 8.27696 4.9624 8.17322H4.96436C5.08085 8.12431 5.20391 8.09979 5.32666 8.09998ZM9.39209 4.20056C9.65585 4.20068 9.97042 4.33177 10.271 4.66833L10.3989 4.82556C10.6622 5.17886 10.8682 5.66094 10.9731 6.20251L11.0122 6.43787C11.115 7.19851 11.0043 7.87692 10.7729 8.36267C10.5404 8.85077 10.2194 9.08963 9.90576 9.13904L9.90479 9.14001C9.86269 9.14673 9.82024 9.14976 9.77783 9.14978L9.66162 9.14197C9.42448 9.10851 9.15712 8.97046 8.89893 8.68103L8.771 8.5238L8.66162 8.36462C8.41524 7.97582 8.23237 7.46925 8.15771 6.91345V6.91248L8.12842 6.63123C8.08386 5.98524 8.19357 5.41267 8.396 4.98767C8.62847 4.49976 8.94962 4.26084 9.26318 4.2113H9.26514C9.30721 4.2046 9.34971 4.20057 9.39209 4.20056ZM14.7349 4.21033H14.7358C15.0498 4.25998 15.3714 4.49953 15.604 4.98767C15.8063 5.4126 15.9161 5.98484 15.8716 6.63025L15.8423 6.9115C15.7555 7.54898 15.5294 8.11998 15.229 8.5238C14.8903 8.97885 14.5236 9.14978 14.2222 9.14978C14.1798 9.14975 14.1373 9.14673 14.0952 9.14001L14.0942 9.13904L13.9761 9.11169C13.7014 9.02609 13.4304 8.78949 13.2271 8.36267C12.9957 7.87703 12.885 7.19897 12.9878 6.43884V6.43787C13.0624 5.88037 13.2456 5.37319 13.4917 4.98474L13.6011 4.82556C13.9382 4.37263 14.306 4.20041 14.6079 4.19958C14.6503 4.1996 14.6928 4.20362 14.7349 4.21033ZM6.46729 16.7513C6.46558 16.502 6.50862 16.255 6.59326 16.0248L6.59521 16.0179L6.59814 16.0111C6.80384 15.4081 7.26973 15.0871 7.92334 14.6664C8.42568 14.3427 9.02917 13.965 9.45166 13.3011L9.53369 13.1644C10.0168 12.3078 10.3539 11.7191 10.7329 11.3275C11.07 10.9793 11.4289 10.8003 11.9995 10.8002C12.5705 10.8002 12.9296 10.9793 13.2661 11.3275C13.6444 11.719 13.9804 12.3069 14.4624 13.1635L14.4634 13.1644C14.8864 13.9135 15.5353 14.3204 16.0698 14.6644C16.7232 15.0852 17.1894 15.4061 17.395 16.0101L17.4009 16.0258C17.4863 16.2558 17.5296 16.5028 17.5288 16.7523V16.7543C17.5286 17.8367 16.757 18.5979 15.9487 18.598C15.4476 18.598 14.8927 18.4108 14.1665 18.1586H14.1675C13.5275 17.9345 12.7281 17.6478 12.0034 17.6478C11.2792 17.6478 10.4785 17.9346 9.83643 18.1586C9.10963 18.4121 8.5507 18.6 8.05127 18.6C7.24023 18.5999 6.46729 17.837 6.46729 16.7552V16.7513Z" stroke="white" stroke-width="1.2"/>
</svg>
