<svg width="24" height="24" viewBox="0 0 24 24" fill="none" xmlns="http://www.w3.org/2000/svg">
<path d="M11.1055 0.981231C10.8092 0.982154 10.4815 1.11508 10.1825 1.41323L4.90338 7.38461H0.923077C0.414462 7.38461 0 7.79908 0 8.30769V15.6923C0 16.2009 0.414462 16.6154 0.923077 16.6154H4.90431L10.1538 22.5582C11.0769 23.4812 12 23.0086 12 21.7505V2.10462C12 1.37446 11.6003 0.976615 11.1055 0.979384V0.981231ZM17.7978 2.82738C17.6015 2.86163 17.4216 2.95849 17.2849 3.10349C17.1481 3.24849 17.062 3.43384 17.0394 3.63183C17.0167 3.82983 17.0588 4.02983 17.1592 4.20196C17.2597 4.37408 17.4131 4.50908 17.5966 4.58677C18.9701 5.27691 20.124 6.33614 20.929 7.64559C21.734 8.95504 22.1581 10.4629 22.1538 12C22.1538 15.2529 20.3077 18.0462 17.5957 19.4132C17.4723 19.4562 17.3594 19.5248 17.2645 19.6147C17.1696 19.7045 17.0948 19.8134 17.0452 19.9343C16.9955 20.0552 16.9721 20.1852 16.9765 20.3158C16.9808 20.4464 17.0129 20.5746 17.0705 20.6919C17.128 20.8092 17.2099 20.9129 17.3106 20.9962C17.4112 21.0795 17.5285 21.1405 17.6545 21.1751C17.7805 21.2098 17.9124 21.2172 18.0415 21.1971C18.1706 21.1769 18.2939 21.1296 18.4034 21.0582C21.72 19.3846 24 15.9582 24 12C24 8.04185 21.7191 4.61538 18.4034 2.94185C18.2454 2.85368 18.065 2.81388 17.8846 2.82738C17.8557 2.82602 17.8268 2.82602 17.7978 2.82738ZM15.6055 6.40338C15.4068 6.41798 15.2181 6.49651 15.0677 6.62723C14.9172 6.75796 14.8131 6.93385 14.771 7.12863C14.7288 7.32341 14.7508 7.52661 14.8337 7.70785C14.9165 7.88909 15.0559 8.03865 15.2308 8.13415C16.6551 9.01938 17.5385 10.4215 17.5385 12C17.5385 13.5895 16.6412 15.0102 15.2022 15.8945C15.0891 15.9534 14.9895 16.0352 14.9096 16.1346C14.8297 16.234 14.7713 16.3489 14.738 16.4719C14.7047 16.595 14.6973 16.7237 14.7162 16.8498C14.7352 16.9759 14.78 17.0967 14.8479 17.2046C14.9159 17.3125 15.0054 17.4052 15.1109 17.4768C15.2165 17.5484 15.3357 17.5973 15.4611 17.6205C15.5865 17.6437 15.7153 17.6407 15.8394 17.6117C15.9636 17.5826 16.0804 17.5281 16.1825 17.4517C18.0932 16.2794 19.3846 14.2855 19.3846 12C19.3846 9.72831 18.1043 7.72338 16.2111 6.54831C16.0564 6.4495 15.8758 6.39904 15.6923 6.40338C15.6634 6.40202 15.6344 6.40202 15.6055 6.40338Z" fill="white"/>
</svg>
