<svg width="24" height="24" viewBox="0 0 24 24" fill="none" xmlns="http://www.w3.org/2000/svg">
<path d="M20.2047 8.65312C20.0105 8.15857 19.6877 7.80199 19.2711 7.6224L19.2655 7.62015C19.0759 7.54064 18.8741 7.49994 18.6705 7.50016H18.6481C17.6945 7.51554 16.721 8.38354 16.2261 9.66023C15.8631 10.5938 15.8214 11.5979 16.1148 12.3463C16.3087 12.8413 16.6321 13.1978 17.0504 13.3774L17.055 13.3793C17.2446 13.4588 17.4465 13.4995 17.6501 13.4993C18.6127 13.4993 19.5963 12.6313 20.1004 11.3377C20.4589 10.4052 20.4984 9.40189 20.2047 8.65312ZM16.3948 14.1596C15.8449 13.8056 15.3251 13.4708 14.9855 12.8694C14.0488 11.2046 13.4831 10.1998 11.9999 10.1998C10.5168 10.1998 9.94971 11.2046 9.01088 12.8694C8.67064 13.4716 8.14976 13.8068 7.59809 14.1622C6.96555 14.5694 6.31201 14.9901 6.02987 15.818C5.92016 16.1164 5.86491 16.4346 5.8671 16.7553C5.8671 18.1033 6.84723 19.2 8.0514 19.2C8.67274 19.2 9.33398 18.9694 10.0337 18.7253C10.7065 18.4906 11.4021 18.248 12.0034 18.248C12.6048 18.248 13.2986 18.4906 13.969 18.7253C14.6673 18.9679 15.3254 19.1985 15.9485 19.1985C17.1509 19.1985 18.1293 18.1018 18.1293 16.7538C18.1303 16.4329 18.0738 16.1147 17.963 15.8165C17.6809 14.9878 17.027 14.5668 16.3948 14.1596ZM8.28943 8.88184C8.70599 9.44163 9.23456 9.74984 9.77784 9.74984C9.852 9.74982 9.92607 9.74393 9.99942 9.73222C11.1325 9.55374 11.8386 8.07271 11.6068 6.3577C11.5099 5.63668 11.2508 4.96515 10.8798 4.46723C10.4639 3.90856 9.93466 3.60073 9.39174 3.60073C9.31757 3.60074 9.24351 3.60663 9.17016 3.61835C8.03705 3.79682 7.331 5.27786 7.56273 6.99286C7.65935 7.71276 7.91838 8.38354 8.28943 8.88184ZM14.0008 9.73222C14.0742 9.74393 14.1482 9.74982 14.2224 9.74984C14.766 9.74984 15.2943 9.44163 15.7108 8.88184C16.0815 8.38354 16.3391 7.71276 16.4372 6.99211C16.6689 5.27786 15.9628 3.79682 14.8297 3.6176C14.7564 3.60588 14.6823 3.59999 14.6082 3.59998C14.0652 3.60073 13.536 3.90856 13.1201 4.46723C12.749 4.96515 12.49 5.63668 12.3934 6.35845C12.1617 8.07271 12.8677 9.55374 14.0008 9.73222ZM6.9449 13.3793L6.9498 13.3774C7.36741 13.1978 7.6905 12.8416 7.88408 12.3471C8.17742 11.5972 8.13611 10.5942 7.77381 9.6606C7.27219 8.36854 6.28891 7.50016 5.32732 7.50016C5.1237 7.49985 4.92183 7.54055 4.73224 7.62015L4.72734 7.62202C4.31078 7.80012 3.98769 8.15782 3.79411 8.65237C3.50077 9.40226 3.54208 10.4052 3.90438 11.3389C4.406 12.6309 5.38928 13.4993 6.35087 13.4993C6.55414 13.4995 6.75564 13.4588 6.9449 13.3793Z" fill="white"/>
</svg>
